<svg xmlns="http://www.w3.org/2000/svg" width="64" height="64" id="p" class="css-1j8o68f">
<path fill="#CC4521" 
d="M36.135 23H27v9h9.135c2.566 0 4.648-1.932 4.648-4.499 0-2.569-2.082-4.501-4.648-4.501z">
</path>
<path fill="#D8532B" 
d="M32 1C14.88 1 1 14.879 1 32s13.88 31 31 31c17.119 0 31-13.879 31-31S49.119 1 32 1zm4.135 37H27v10h-6V17h15.135c5.991 0 10.85 4.508 10.85 10.501C46.984 33.492 42.126 38 36.135 38z">
</path>
<path fill="#CC4521" 
d="M43.292 3.131c3.861 5.112 6.117 11.28 6.117 17.922 0 17.655-15.938 31.969-35.602 31.969-1.65 0-3.273-.109-4.865-.305C14.618 59.029 22.844 63 32 63c17.119 0 31-13.879 31-31 0-13.135-8.173-24.354-19.708-28.869z">
</path>
<path fill="#FC732D" 
d="M40.604 28.501c.104-.391.179-.61.179-1.031 0-2.569-2.082-4.471-4.648-4.471H27v2h9.135c2.144.001 3.934 1.525 4.469 3.502z">
</path>
<g fill="#FC732D">
<path d="M36.135 38H27v3h9.135c5.991 0 10.85-5.047 10.85-11.038 0-.411-.028-1.009-.071-1.406C46.31 33.977 41.717 38 36.135 38z">
</path>
<path d="M32 3.422c16.714 0 30.333 13.229 30.97 29.789.013-.403.03-.804.03-1.211C63 14.879 49.119 1 32 1 14.88 1 1 14.879 1 32c0 .407.016.808.03 1.211C1.667 16.651 15.285 3.422 32 3.422zM21 48h6v2h-6z">
</path>
</g>
</svg>